<?xml version="1.0" encoding="utf-8"?>
<!-- Generator: Adobe Illustrator 26.4.1, SVG Export Plug-In . SVG Version: 6.00 Build 0)  -->
<svg version="1.1" id="Layer_1" xmlns="http://www.w3.org/2000/svg" xmlns:xlink="http://www.w3.org/1999/xlink" x="0px" y="0px"
	 viewBox="0 0 500 600" style="enable-background:new 0 0 500 600;" xml:space="preserve">
<style type="text/css">
	.st0{fill:none;stroke:#ADADAD;stroke-width:8;}
</style>
<path d="M177.34,224.67h18.6v-40.45h-12.97V29.5H114.2l-6.61,129.71c-0.49,10.54-1.71,18.39-7.59,25.01H88.99v40.45h18.35v-23.53
	h69.99L177.34,224.67L177.34,224.67z M126.19,158.96l5.63-112.05h31.81v137.31h-45.27C123.75,178.58,125.46,171.22,126.19,158.96z"
	/>
<path d="M264.03,163.38L300.74,29.5h-19.82L265.5,89.08l-10.03,43.16l-11.75-43.16L226.34,29.5h-19.09l39.4,126.52l-3.92,11.28
	c-3.18,12.99-9.79,17.65-24.47,16.92v17.16C249.35,202.85,258.16,189.12,264.03,163.38z"/>
<path d="M374.15,125.13v76.01h18.84V29.5h-18.84v71.6c-1.96,12.99-9.05,20.1-20.56,20.1c-13.46,0-21.05-10.3-21.05-24.76V29.5
	h-19.09v68.41c0,23.05,11.01,40.7,34.02,40.7C357.76,138.61,368.04,133.95,374.15,125.13z"/>
<path d="M144.12,416.29l4.04-79.07h75.62v-25.75H122.47l-6.98,143.07h26.8v-5.88c2.57-18.76,13.22-27.59,29-27.59
	c20.56,0,30.1,13.98,30.1,37.15v50.02c0,23.17-9.54,37.15-30.1,37.15s-30.1-13.98-30.1-37.15v-19.12h-26.8v17.28
	c0,39.35,18.35,65.1,57.63,65.1s58-25.75,58-65.1v-50.39c0-36.78-14.68-61.05-47.72-61.05C165.05,394.96,152.2,402.32,144.12,416.29
	z"/>
<path d="M314.71,308.9c-40.75,0-59.1,25.38-59.1,66.2v131.3c0,39.35,19.45,65.1,59.1,65.1c39.28,0,58.73-25.75,58.73-65.1v-38.98
	c0-37.15-14.68-61.06-47.72-61.06c-20.56,0-34.51,9.93-41.48,27.59V376.2c0-27.58,9.54-41.56,31.2-41.56
	c20.92,0,30.47,13.61,30.47,36.78v6.62h26.8v-4.78C372.71,333.91,354.35,308.9,314.71,308.9z M314.71,432.48
	c20.56,0,30.47,13.97,30.47,37.14v38.62c0,23.17-9.91,37.15-30.47,37.15c-20.92,0-30.47-13.98-30.47-37.15v-38.62
	C284.24,446.45,293.79,432.48,314.71,432.48z"/>
<circle class="st0" cx="110.5" cy="197" r="43.5"/>
<circle class="st0" cx="250.5" cy="170" r="43.5"/>
<circle class="st0" cx="390.5" cy="140" r="43.5"/>
<circle class="st0" cx="136.5" cy="430" r="43.5"/>
<circle class="st0" cx="288.5" cy="430" r="43.5"/>
</svg>
