<?xml version="1.0" encoding="utf-8"?>
<!-- Generator: Adobe Illustrator 26.4.1, SVG Export Plug-In . SVG Version: 6.00 Build 0)  -->
<svg version="1.1" id="Layer_1" xmlns="http://www.w3.org/2000/svg" xmlns:xlink="http://www.w3.org/1999/xlink" x="0px" y="0px"
	 viewBox="0 0 1440 96" style="enable-background:new 0 0 1440 96;" xml:space="preserve">
<style type="text/css">
	.st0{clip-path:url(#SVGID_00000034075050621334756720000003124260372535456413_);}
	.st1{fill:#6F2DA8;}
</style>
<g>
	<defs>
		<rect id="SVGID_1_" width="1440" height="96"/>
	</defs>
	<clipPath id="SVGID_00000118360950776477285650000004548233707954705843_">
		<use xlink:href="#SVGID_1_"  style="overflow:visible;"/>
	</clipPath>
	<g style="clip-path:url(#SVGID_00000118360950776477285650000004548233707954705843_);">
		<path class="st1" d="M584.44,0h-51.09l-96,96h51.09L584.44,0z"/>
		<path class="st1" d="M1301.84,96h51.1L1440,8.94V0h-42.16L1301.84,96z"/>
		<path class="st1" d="M411.54,0h-51.09l-96,96h51.09L411.54,0z"/>
		<path class="st1" d="M670.89,0H619.8l-96,96h51.09L670.89,0z"/>
		<path class="st1" d="M497.99,0H446.9l-96,96h51.09L497.99,0z"/>
		<path class="st1" d="M5.1,96h51.09l96-96H101.1L5.1,96z"/>
		<path class="st1" d="M238.64,0h-51.09l-96,96h51.09L238.64,0z"/>
		<path class="st1" d="M757.34,0h-51.09l-96,96h51.09L757.34,0z"/>
		<path class="st1" d="M325.09,0H274l-96,96h51.09L325.09,0z"/>
		<path class="st1" d="M1276.04,0h-51.09l-96,96h51.09L1276.04,0z"/>
		<path class="st1" d="M1362.49,0h-51.09l-96,96h51.09L1362.49,0z"/>
		<path class="st1" d="M1189.59,0h-51.09l-96,96h51.09L1189.59,0z"/>
		<path class="st1" d="M843.79,0H792.7l-96,96h51.09L843.79,0z"/>
		<path class="st1" d="M1388.29,96H1440V44.29L1388.29,96z"/>
		<path class="st1" d="M65.74,0H0v65.74L65.74,0z"/>
		<path class="st1" d="M1103.14,0h-51.09l-96,96h51.09L1103.14,0z"/>
		<path class="st1" d="M930.24,0h-51.09l-96,96h51.09L930.24,0z"/>
		<path class="st1" d="M1016.69,0H965.6l-96,96h51.09L1016.69,0z"/>
	</g>
</g>
</svg>
