<?xml version="1.0" encoding="utf-8"?>
<!-- Generator: Adobe Illustrator 26.4.1, SVG Export Plug-In . SVG Version: 6.00 Build 0)  -->
<svg version="1.1" id="Layer_1" xmlns="http://www.w3.org/2000/svg" xmlns:xlink="http://www.w3.org/1999/xlink" x="0px" y="0px"
	 viewBox="0 0 485.1 285" style="enable-background:new 0 0 485.1 285;" xml:space="preserve">
<style type="text/css">
	.st0{fill:none;stroke:#000000;stroke-width:7;stroke-miterlimit:10;}
	.st1{fill:#6F2DA8;stroke:#000000;stroke-width:7;stroke-miterlimit:10;}
</style>
<path class="st0" d="M469.4,14.9H15.8v255.1h453.5V14.9z"/>
<path class="st1" d="M414,210.4c0.5,0,1,0,1.5,0v-50.4h-25.6v-33.6h25.6V76.1c-0.2,0-0.3,0-0.5,0c-16.6,0-30.1-13.5-30.1-30.2h-118
	v16.8h-48.5V45.9H99.9c0,16.6-13.5,30.1-30.1,30.1v50.4h24.3v33.6H69.8v50.4c16.6,0,30.1,13.5,30.1,30.1h118.5v-16.8h48.5v16.8h117
	C383.9,223.9,397.4,210.4,414,210.4z"/>
</svg>
