<?xml version="1.0" encoding="utf-8"?>
<!-- Generator: Adobe Illustrator 26.4.1, SVG Export Plug-In . SVG Version: 6.00 Build 0)  -->
<svg version="1.1" id="Layer_1" xmlns="http://www.w3.org/2000/svg" xmlns:xlink="http://www.w3.org/1999/xlink" x="0px" y="0px"
	 viewBox="0 0 380.35 438.75" style="enable-background:new 0 0 380.35 438.75;" xml:space="preserve">
<style type="text/css">
	.st0{fill:#FFFFFF;stroke:#000000;stroke-width:12;}
	.st1{clip-path:url(#SVGID_00000001623059074948456430000015132271860025595786_);}
	.st2{fill:#FFFFFF;}
	.st3{clip-path:url(#SVGID_00000036963721822101757640000000171391145502076075_);}
</style>
<rect x="14.17" y="204.2" class="st0" width="356.2" height="225.35"/>
<g>
	<g>
		<defs>
			<rect id="SVGID_1_" x="7.89" y="155.33" width="368.2" height="36.52"/>
		</defs>
		<clipPath id="SVGID_00000142171786880697194100000009094801720670303391_">
			<use xlink:href="#SVGID_1_"  style="overflow:visible;"/>
		</clipPath>
		<g style="clip-path:url(#SVGID_00000142171786880697194100000009094801720670303391_);">
			<rect x="7.89" y="155.33" class="st2" width="368.2" height="36.52"/>
			<path d="M227.57,155.33H198.7l-38.76,36.52h28.88L227.57,155.33z"/>
			<path d="M164.96,155.33h-28.87l-38.76,36.52h28.87L164.96,155.33z"/>
			<path d="M290.18,155.33h-28.87l-38.76,36.52h28.88L290.18,155.33z"/>
			<path d="M34.81,191.84H63.6l38.76-36.52H73.57L34.81,191.84z"/>
			<path d="M347.76,191.84h28.32v-26.68L347.76,191.84z"/>
			<path d="M39.85,155.33H7.89v30.11L39.85,155.33z"/>
			<path d="M352.79,155.33h-28.87l-38.76,36.52h28.88L352.79,155.33z"/>
		</g>
	</g>
</g>
<g>
	<g>
		<defs>
			
				<rect id="SVGID_00000089567489146889122860000005352010812216206480_" x="-3.31" y="56.83" transform="matrix(0.9491 -0.3151 0.3151 0.9491 -14.8233 60.5074)" width="366.08" height="38.53"/>
		</defs>
		<clipPath id="SVGID_00000171706907511415383170000004949425325288912002_">
			<use xlink:href="#SVGID_00000089567489146889122860000005352010812216206480_"  style="overflow:visible;"/>
		</clipPath>
		<g style="clip-path:url(#SVGID_00000171706907511415383170000004949425325288912002_);">
			
				<rect x="-3.31" y="56.83" transform="matrix(0.9491 -0.3151 0.3151 0.9491 -14.8233 60.5074)" class="st2" width="366.08" height="38.53"/>
			<path d="M207.23,46.67l-27.24,9.05l-24.43,48.71l27.25-9.05L207.23,46.67z"/>
			<path d="M148.15,66.28l-27.24,9.05l-24.43,48.71l27.24-9.05L148.15,66.28z"/>
			<path d="M266.3,27.05l-27.25,9.05l-24.43,48.71l27.24-9.05L266.3,27.05z"/>
			<path d="M37.49,143.62l27.16-9.02l24.43-48.71l-27.16,9.02L37.49,143.62z"/>
			<path d="M332.78,45.58l26.72-8.87l-8.87-26.72L332.78,45.58z"/>
			<path d="M30.1,105.48l-30.16,10.01l10.01,30.16L30.1,105.48z"/>
			<path d="M325.38,7.44l-27.24,9.05L273.71,65.2l27.25-9.05L325.38,7.44z"/>
		</g>
	</g>
</g>
</svg>
