<?xml version="1.0" encoding="utf-8"?>
<!-- Generator: Adobe Illustrator 26.4.1, SVG Export Plug-In . SVG Version: 6.00 Build 0)  -->
<svg version="1.1" id="Layer_1" xmlns="http://www.w3.org/2000/svg" xmlns:xlink="http://www.w3.org/1999/xlink" x="0px" y="0px"
	 viewBox="0 0 841.89 595.28" style="enable-background:new 0 0 841.89 595.28;" xml:space="preserve">
<style type="text/css">
	.st0{clip-path:url(#SVGID_00000068677401031305146240000009762055306110144703_);}
	.st1{fill:none;stroke:#000000;stroke-width:12;stroke-miterlimit:10;}
	.st2{fill:none;stroke:#000000;stroke-width:12;stroke-linecap:square;stroke-miterlimit:10;}
	.st3{fill:#FFFFFF;}
</style>
<g>
	<defs>
		<rect id="SVGID_1_" x="284.63" y="85.17" width="271.97" height="424.86"/>
	</defs>
	<clipPath id="SVGID_00000036229238173173012150000016133769335310238370_">
		<use xlink:href="#SVGID_1_"  style="overflow:visible;"/>
	</clipPath>
	<g style="clip-path:url(#SVGID_00000036229238173173012150000016133769335310238370_);">
		<path class="st1" d="M304.92,296.57h231.39"/>
		<path class="st1" d="M304.92,217.96v78.61"/>
		<path class="st1" d="M536.31,217.96v78.42"/>
		<path class="st1" d="M284.63,296.57h41.21"/>
		<path class="st1" d="M284.63,217.96h41.21"/>
		<path class="st1" d="M297.94,503.88h41.21"/>
		<path class="st1" d="M501.45,503.88h41.2"/>
		<path class="st1" d="M515.39,296.57h41.21"/>
		<path class="st1" d="M515.39,217.96h41.21"/>
		<path class="st1" d="M325.84,91.17v199.7V91.17z"/>
		<path class="st1" d="M512.86,91.17v199.7V91.17z"/>
		<path class="st2" d="M325.84,91.17h187.02"/>
		<path class="st1" d="M325.84,179.92h187.02"/>
		<path class="st1" d="M325.84,268.68h187.02"/>
		<path class="st1" d="M315.06,296.57l209.21,209.21"/>
		<path class="st1" d="M525.22,295.48L316.01,504.69"/>
		<path class="st1" d="M323.53,447.8h30.65"/>
		<path class="st1" d="M486.3,449.21h30.65"/>
		<path class="st1" d="M341.33,295.03l155.61,155.6"/>
		<path class="st1" d="M497.64,294.21l-155.6,155.61"/>
	</g>
</g>
<rect x="331.68" y="97.16" class="st3" width="175" height="76.99"/>
<rect x="331.68" y="275.04" class="st3" width="175" height="15.6"/>
</svg>
