<?xml version="1.0" encoding="utf-8"?>
<!-- Generator: Adobe Illustrator 26.4.1, SVG Export Plug-In . SVG Version: 6.00 Build 0)  -->
<svg version="1.1" id="Layer_1" xmlns="http://www.w3.org/2000/svg" xmlns:xlink="http://www.w3.org/1999/xlink" x="0px" y="0px"
	 viewBox="0 0 500 600" style="enable-background:new 0 0 500 600;" xml:space="preserve">
<style type="text/css">
	.st0{fill:#ADADAD;}
	.st1{fill:#FFFFFF;}
</style>
<path class="st0" d="M402,104.5H99v392h303V104.5z"/>
<rect x="99" y="193.5" width="303" height="303"/>
<path class="st1" d="M121.28,422.39L115,444.5h8.03l9.79-23.87v-22.61H114v24.37H121.28z"/>
<path class="st1" d="M171.78,398.02h-18.83v24.37h18.83V398.02z"/>
<path class="st1" d="M212.02,302.28h-18.83v24.37h18.83V302.28z M200.47,422.39l-6.28,22.11h8.03l9.79-23.87v-22.61h-18.83v24.37
	H200.47z"/>
<path class="st1" d="M250.98,302.28h-18.83v24.37h18.83V302.28z M250.98,398.02h-18.83v24.37h18.83V398.02z"/>
<path class="st1" d="M280.17,292.98l9.54-23.87V246.5h-18.58v24.37h7.03l-6.03,22.11H280.17z M308.29,292.98l9.54-23.87V246.5H299
	v24.37h7.28L300,292.98H308.29z"/>
<path class="st1" d="M348.34,292.98l9.54-23.87V246.5H339.3v24.37h7.03l-6.03,22.11H348.34z M376.46,292.98l9.54-23.87V246.5h-18.83
	v24.37h7.28l-6.28,22.11H376.46z"/>
</svg>
