<?xml version="1.0" encoding="utf-8"?>
<!-- Generator: Adobe Illustrator 26.4.1, SVG Export Plug-In . SVG Version: 6.00 Build 0)  -->
<svg version="1.1" id="Layer_1" xmlns="http://www.w3.org/2000/svg" xmlns:xlink="http://www.w3.org/1999/xlink" x="0px" y="0px"
	 viewBox="0 0 66.19 80.35" style="enable-background:new 0 0 66.19 80.35;" xml:space="preserve">
<style type="text/css">
	.st0{clip-path:url(#SVGID_00000125590174559522405630000016944116043765517472_);}
	.st1{fill:#FFFFFF;}
	.st2{fill:#6F2DA8;}
</style>
<g>
	<defs>
		<rect id="SVGID_1_" x="5.01" y="5.31" width="56" height="66"/>
	</defs>
	<clipPath id="SVGID_00000021103615139914292470000012641578158801039285_">
		<use xlink:href="#SVGID_1_"  style="overflow:visible;"/>
	</clipPath>
	<g style="clip-path:url(#SVGID_00000021103615139914292470000012641578158801039285_);">
		<path d="M33.01,61.31c15.46,0,28-12.54,28-28s-12.54-28-28-28s-28,12.54-28,28S17.54,61.31,33.01,61.31z"/>
		<path class="st1" d="M33.01,66.31c15.46,0,28-12.54,28-28s-12.54-28-28-28s-28,12.54-28,28S17.54,66.31,33.01,66.31z"/>
		<path class="st2" d="M33.01,71.31c15.46,0,28-12.54,28-28s-12.54-28-28-28s-28,12.54-28,28S17.54,71.31,33.01,71.31z"/>
	</g>
</g>
</svg>
