<?xml version="1.0" encoding="utf-8"?>
<!-- Generator: Adobe Illustrator 26.4.1, SVG Export Plug-In . SVG Version: 6.00 Build 0)  -->
<svg version="1.1" id="Layer_1" xmlns="http://www.w3.org/2000/svg" xmlns:xlink="http://www.w3.org/1999/xlink" x="0px" y="0px"
	 viewBox="0 0 1086.7 620.4" style="enable-background:new 0 0 1086.7 620.4;" xml:space="preserve">
<style type="text/css">
	.st0{fill:#6F2DA8;stroke:#000000;stroke-width:7;}
	.st1{fill:#FFFFFF;stroke:#000000;stroke-width:7;stroke-miterlimit:10;}
</style>
<rect x="9.4" y="12.4" class="st0" width="1066" height="595.9"/>
<polygon class="st1" points="1005.1,274 1005.1,196.9 927.6,196.9 927.6,137.4 1004.5,137.4 1004.5,60.2 850.6,60.2 850.6,98.7 
	746.4,98.7 746.4,60 592.5,60 592.5,98.7 488.2,98.7 488.2,60.2 334.3,60.2 334.3,98.7 230.1,98.7 230.1,60.2 76.2,60.2 76.2,137.4 
	153.1,137.4 153.1,196.8 76.8,196.8 76.8,273.9 153.1,273.9 153.1,333.4 76.8,333.4 76.8,410.5 153.1,410.5 153.1,470 76.2,470 
	76.2,547.2 230.1,547.2 230.1,508.6 334.3,508.6 334.3,547.2 488.2,547.2 488.2,508.6 592.5,508.6 592.5,546.9 746.4,546.9 
	746.4,508.6 850.6,508.6 850.6,547.2 1004.5,547.2 1004.5,470 927.6,470 927.6,410.6 1005.1,410.6 1005.1,333.4 927.6,333.4 
	927.6,274 "/>
</svg>
