<?xml version="1.0" encoding="utf-8"?>
<!-- Generator: Adobe Illustrator 26.4.1, SVG Export Plug-In . SVG Version: 6.00 Build 0)  -->
<svg version="1.1" id="Layer_1" xmlns="http://www.w3.org/2000/svg" xmlns:xlink="http://www.w3.org/1999/xlink" x="0px" y="0px"
	 viewBox="0 0 500 600" style="enable-background:new 0 0 500 600;" xml:space="preserve">
<path d="M247.32,170.25h50.27v-32.73h-51.18c-50.27,0-74.72,28.58-74.72,79.76v7.38c0,32.27,11.78,56.71,37.59,65.93
	c-26.27,10.14-37.59,35.5-37.59,67.31v31.35c0,45.64,18.11,74.23,57.52,74.23c23.1,0,40.76-10.6,49.82-31.35
	c0.45,13.83,2.26,20.29,5.89,28.12h35.78c-6.34-12.45-6.79-24.9-6.79-41.03V308.1h15.4v-32.27h-15.4v-35.96h-34.87v35.96h-35.78
	c-23.1-0.92-36.68-16.14-36.68-43.8v-16.14C206.56,184.54,220.6,170.25,247.32,170.25z M245.96,308.1h33.06v85.75
	c-0.91,24.9-15.4,36.88-35.78,36.88c-24.46,0-36.68-15.67-36.68-44.26v-29.51C206.56,325.62,219.69,309.02,245.96,308.1z"/>
</svg>
