<?xml version="1.0" encoding="utf-8"?>
<!-- Generator: Adobe Illustrator 26.4.1, SVG Export Plug-In . SVG Version: 6.00 Build 0)  -->
<svg version="1.1" id="Layer_1" xmlns="http://www.w3.org/2000/svg" xmlns:xlink="http://www.w3.org/1999/xlink" x="0px" y="0px"
	 viewBox="0 0 580.54 807.08" style="enable-background:new 0 0 580.54 807.08;" xml:space="preserve">
<style type="text/css">
	.st0{fill:#6F2DA8;}
	.st1{fill:#FFFFFF;}
</style>
<path d="M442.91,13.89h55.21v771.5h-55.21V13.89z"/>
<path class="st0" d="M71,597.85c0,4.76-5.14,5.56-5.14,10.41v2.03h7.49v-2.35h-4.9c-0.02-0.12-0.02-0.24-0.02-0.35
	c0-2.71,5.16-4.64,5.16-9.82c0-2.64-1.32-4.15-3.86-4.15s-3.86,1.51-3.86,4.15v1.6h2.45v-1.77c0-1.18,0.52-1.62,1.34-1.62
	C70.48,595.97,71,596.37,71,597.85z"/>
<path class="st0" d="M74.99,597.76v8.57c0,2.64,1.39,4.14,3.93,4.14s3.93-1.51,3.93-4.14v-8.57c0-2.64-1.39-4.15-3.93-4.15
	S74.99,595.12,74.99,597.76z M77.58,606.5v-8.9c0-1.18,0.52-1.62,1.34-1.62s1.34,0.45,1.34,1.62v8.9c0,1.18-0.52,1.62-1.34,1.62
	S77.58,607.67,77.58,606.5z"/>
<path class="st0" d="M84.33,597.76v8.57c0,2.64,1.39,4.14,3.93,4.14s3.93-1.51,3.93-4.14v-8.57c0-2.64-1.39-4.15-3.93-4.15
	S84.33,595.12,84.33,597.76z M86.92,606.5v-8.9c0-1.18,0.52-1.62,1.34-1.62s1.34,0.45,1.34,1.62v8.9c0,1.18-0.52,1.62-1.34,1.62
	C87.44,608.12,86.92,607.67,86.92,606.5z"/>
<path class="st0" d="M96.21,604.96h-2.45v1.37c0,2.64,1.32,4.14,3.86,4.14s3.86-1.51,3.86-4.14v-3.67c0-2.42-0.97-3.77-2.87-3.77
	c-1.04,0-1.79,0.42-2.26,1.2l0.21-3.93h4.5v-2.35h-6.83l-0.47,9.56h2.45v-0.49c0-1.18,0.52-1.62,1.34-1.62s1.34,0.45,1.34,1.62v3.63
	c0,1.18-0.52,1.6-1.34,1.6s-1.34-0.42-1.34-1.6C96.21,606.51,96.21,604.96,96.21,604.96z"/>
<path class="st0" d="M68.45,633.84v-7.07h2.94v7.07h2.64v-16.48H71.4v7.06h-2.94v-7.06h-2.59v16.48H68.45z"/>
<path class="st0" d="M84.3,633.84l-2.64-16.48h-3.79l-2.64,16.48h2.38l0.45-2.99h3.18l0.45,2.99H84.3z M78.39,628.61l1.25-8.34
	l1.25,8.34H78.39z"/>
<path class="st0" d="M85.53,633.84h2.59v-14.13h4.24v-2.35h-6.83C85.53,617.36,85.53,633.84,85.53,633.84z"/>
<path class="st0" d="M93.9,621.31v8.57c0,2.64,1.39,4.14,3.93,4.14s3.93-1.51,3.93-4.14v-8.57c0-2.64-1.39-4.15-3.93-4.15
	S93.9,618.67,93.9,621.31z M96.49,630.05v-8.9c0-1.18,0.52-1.62,1.34-1.62s1.34,0.45,1.34,1.62v8.9c0,1.18-0.52,1.62-1.34,1.62
	C97.01,631.67,96.49,631.22,96.49,630.05z"/>
<path class="st0" d="M102.98,633.84h2.64c0.14-0.42,0.24-0.68,0.24-2.03v-2.59c0-1.53,0.52-2.1,1.7-2.1h0.9v6.71h2.59v-16.48h-3.91
	c-2.69,0-3.84,1.25-3.84,3.79v1.3c0,1.7,0.54,2.8,1.7,3.34c-1.3,0.54-1.72,1.79-1.72,3.51v2.54
	C103.26,632.64,103.24,633.23,102.98,633.84z M107.19,619.71h1.25v5.06h-1.01c-0.97,0-1.55-0.42-1.55-1.74v-1.62
	C105.87,620.23,106.28,619.71,107.19,619.71z"/>
<path class="st0" d="M112.93,633.84h0.99l-0.68,2.35h1.06l1.13-2.61v-2.24h-2.5C112.93,631.34,112.93,633.84,112.93,633.84z"/>
<path class="st0" d="M120.48,633.84h2.64c0.14-0.42,0.24-0.68,0.24-2.03v-2.59c0-1.53,0.52-2.1,1.7-2.1h0.9v6.71h2.59v-16.48h-3.91
	c-2.69,0-3.84,1.25-3.84,3.79v1.3c0,1.7,0.54,2.8,1.7,3.34c-1.3,0.54-1.72,1.79-1.72,3.51v2.54
	C120.77,632.64,120.74,633.23,120.48,633.84z M124.7,619.71h1.25v5.06h-1.01c-0.97,0-1.55-0.42-1.55-1.74v-1.62
	C123.38,620.23,123.78,619.71,124.7,619.71z"/>
<path class="st0" d="M133.02,633.84v-14.13h2.94v14.13h2.64v-16.48h-8.17v16.48H133.02z"/>
<path class="st0" d="M140.27,621.31v8.57c0,2.64,1.39,4.14,3.93,4.14s3.93-1.51,3.93-4.14v-8.57c0-2.64-1.39-4.15-3.93-4.15
	S140.27,618.67,140.27,621.31z M142.86,630.05v-8.9c0-1.18,0.52-1.62,1.34-1.62c0.82,0,1.34,0.45,1.34,1.62v8.9
	c0,1.18-0.52,1.62-1.34,1.62S142.86,631.22,142.86,630.05z"/>
<path class="st0" d="M152.41,633.84v-7.07h2.94v7.07H158v-16.48h-2.64v7.06h-2.94v-7.06h-2.59v16.48H152.41z"/>
<path class="st0" d="M162.54,633.84l2.17-7.56l1.06-4.05v11.61h2.33v-16.48h-2.85l-2.12,6.81l-0.94,3.63v-10.43h-2.31v16.48h2.66
	V633.84z"/>
<path class="st0" d="M169.46,633.84h2.64c0.14-0.42,0.24-0.68,0.24-2.03v-2.59c0-1.53,0.52-2.1,1.7-2.1h0.9v6.71h2.59v-16.48h-3.91
	c-2.69,0-3.84,1.25-3.84,3.79v1.3c0,1.7,0.54,2.8,1.7,3.34c-1.3,0.54-1.72,1.79-1.72,3.51v2.54
	C169.74,632.64,169.72,633.23,169.46,633.84z M173.67,619.71h1.25v5.06h-1.01c-0.97,0-1.56-0.42-1.56-1.74v-1.62
	C172.35,620.23,172.76,619.71,173.67,619.71z"/>
<path class="st0" d="M73.99,659.65h1.79v-3.89h-1.25V640.9h-6.62l-0.64,12.46c-0.05,1.01-0.16,1.77-0.73,2.4h-1.06v3.89h1.77v-2.26
	h6.74C73.99,657.39,73.99,659.65,73.99,659.65z M69.06,653.34l0.54-10.76h3.06v13.19H68.3C68.83,655.22,68.99,654.52,69.06,653.34z"
	/>
<path class="st0" d="M81.72,649.78l1.79-5.51v13.12h1.65V640.9h-2.05l-2.64,7.75l-1.46,4.55v-12.3h-1.63v16.48h1.91L81.72,649.78z"
	/>
<path class="st0" d="M90.63,640.74c-2.52,0-3.67,1.6-3.67,4.12v1.04h1.7v-1.11c0-1.48,0.61-2.38,1.93-2.38
	c1.34,0,1.93,0.85,1.93,2.54v0.75c0,1.44-0.8,2.26-2.03,2.26h-0.87v1.65h0.78c1.39,0,2.12,0.85,2.12,2.45v1.29
	c0,1.65-0.59,2.52-1.93,2.52c-1.32,0-1.93-0.9-1.93-2.38v-1.69h-1.72v1.6c0,2.5,1.18,4.15,3.7,4.15c2.54,0,3.72-1.65,3.72-4.15
	v-1.29c0-1.65-0.64-2.92-2.03-3.39c1.34-0.49,2.03-1.72,2.03-3.42v-0.42C94.35,642.39,93.17,640.74,90.63,640.74z"/>
<path class="st0" d="M97.99,654.07h4.17l0.64,3.32h1.84l-3.16-16.48h-2.66l-3.16,16.48h1.7L97.99,654.07z M98.23,652.49l1.81-9.52
	l1.86,9.52H98.23z"/>
<path class="st0" d="M112.6,637.54h-1.13c-0.07,0.92-0.64,1.2-1.41,1.2c-0.78,0-1.32-0.28-1.39-1.2h-1.15
	c0.05,1.44,0.97,2.31,2.54,2.31C111.63,639.84,112.6,638.97,112.6,637.54z M110.55,649.45l1.65-5.18v13.12h1.65V640.9h-2.05
	l-2.57,7.54l-1.53,4.76v-12.3h-1.63v16.48h1.91L110.55,649.45z"/>
<path class="st0" d="M117.57,649.97h4.05v7.42h1.84V640.9h-1.84v7.42h-4.05v-7.42h-1.84v16.48h1.84V649.97z"/>
<path class="st0" d="M131.21,648.2h-4.03v-5.63h4.95v-1.67h-6.78v16.48h6.78v-1.67h-4.95v-5.86h4.03V648.2z"/>
<path class="st0" d="M137.44,640.9h-3.6v16.48h1.84v-6.5h1.62c2.62,0,3.84-1.37,3.84-3.98v-1.98
	C141.14,642.43,140.03,640.9,137.44,640.9z M137.3,649.24h-1.62v-6.67h1.77c1.34,0,1.88,0.75,1.88,2.26v2.19
	C139.32,648.6,138.66,649.24,137.3,649.24z"/>
<path class="st0" d="M149.91,640.9h-3.68v16.48h1.84v-7.04h1.29c1.53,0,2.4,0.59,2.4,2.45v2.59c0,1.11,0.09,1.53,0.31,2h1.86
	c-0.31-0.56-0.33-1.25-0.33-1.98v-2.57c0-1.77-0.57-2.99-2.07-3.44c1.41-0.45,2.05-1.58,2.05-3.39v-1.34
	C153.58,642.22,152.5,640.9,149.91,640.9z M149.44,648.68h-1.37v-6.1h1.79c1.37,0,1.91,0.78,1.91,2.26v1.58
	C151.77,648.2,150.9,648.68,149.44,648.68z"/>
<path class="st0" d="M158.2,651.48v5.91h1.81v-5.91l3.51-10.57h-1.74l-2.59,8.1l-2.57-8.1h-1.91L158.2,651.48z"/>
<path class="st0" d="M164.36,644.88v8.52c0,2.5,1.25,4.15,3.77,4.15c2.54,0,3.79-1.65,3.79-4.15v-8.52c0-2.52-1.25-4.15-3.79-4.15
	C165.61,640.74,164.36,642.36,164.36,644.88z M166.17,653.5v-8.71c0-1.48,0.64-2.38,1.96-2.38c1.34,0,1.96,0.9,1.96,2.38v8.71
	c0,1.51-0.61,2.38-1.96,2.38C166.81,655.88,166.17,655.01,166.17,653.5z"/>
<path class="st0" d="M175.49,640.9h-1.84v16.48h1.84V640.9z"/>
<path class="st0" d="M180.94,640.74c-2.52,0-3.7,1.65-3.7,4.15v8.52c0,2.5,1.18,4.15,3.7,4.15c2.54,0,3.72-1.65,3.72-4.15v-2.05
	h-1.74v2.14c0,1.48-0.59,2.38-1.93,2.38c-1.32,0-1.93-0.9-1.93-2.38v-8.71c0-1.48,0.61-2.38,1.93-2.38c1.34,0,1.93,0.9,1.93,2.38
	v1.58h1.74v-1.48C184.66,642.39,183.48,640.74,180.94,640.74z"/>
<path class="st0" d="M188.17,649.97h4.05v7.42h1.84V640.9h-1.84v7.42h-4.05v-7.42h-1.84v16.48h1.84V649.97z"/>
<path class="st0" d="M197.78,640.9h-1.84v16.48h1.84V640.9z"/>
<path class="st0" d="M205.73,657.39h1.84v-14.81h3.04v-1.67h-7.92v1.67h3.04L205.73,657.39L205.73,657.39z"/>
<path class="st0" d="M215.35,640.74c-2.47,0-3.65,1.58-3.65,4.12c0,4.64,5.51,4.99,5.51,8.67c0,1.48-0.61,2.35-1.93,2.35
	s-1.93-0.87-1.93-2.35v-1.04h-1.72v0.94c0,2.5,1.18,4.12,3.7,4.12s3.72-1.62,3.72-4.12c0-4.64-5.54-4.99-5.54-8.69
	c0-1.46,0.57-2.33,1.88-2.33s1.88,0.87,1.88,2.35v0.54h1.74v-0.45C219.02,642.36,217.85,640.74,215.35,640.74z"/>
<path class="st0" d="M222.39,653.5v-12.6h-1.81v12.51c0,2.5,1.15,4.17,3.67,4.17c2.54,0,3.7-1.67,3.7-4.17V640.9h-1.72v12.6
	c0,1.48-0.59,2.38-1.91,2.38C222.98,655.88,222.39,654.99,222.39,653.5z"/>
<path class="st0" d="M231.39,657.39v-13.33l4.22,13.33h1.91V640.9h-1.63v11.92l-3.82-11.92h-2.33v16.48h1.65V657.39z"/>
<path class="st0" d="M245.26,648.2h-4.03v-5.63h4.95v-1.67h-6.78v16.48h6.78v-1.67h-4.95v-5.86h4.03V648.2z"/>
<path class="st0" d="M250.69,650.23l3.53,7.16h1.89l-4.31-8.97l4.17-7.51h-1.86l-4.38,7.96v-7.96h-1.84v16.48h1.84v-5.53
	L250.69,650.23z"/>
<path class="st0" d="M259.39,654.07h4.17l0.64,3.32h1.84l-3.16-16.48h-2.66l-3.16,16.48h1.7L259.39,654.07z M259.62,652.49
	l1.81-9.52l1.86,9.52H259.62z"/>
<path class="st0" d="M271.5,657.39l1.62-11.19l1.58,11.19h2.43l2.24-16.48h-1.6l-1.86,14.06l-1.81-14.04h-1.81l-1.84,14.01
	l-1.93-14.04h-1.79l2.26,16.48L271.5,657.39L271.5,657.39z"/>
<path class="st0" d="M282.37,654.07h4.17l0.64,3.32h1.84l-3.16-16.48h-2.66l-3.16,16.48h1.7L282.37,654.07z M282.6,652.49l1.81-9.52
	l1.86,9.52H282.6z"/>
<path class="st0" d="M297.71,640.9h-3.6v16.48h1.84v-6.5h1.62c2.61,0,3.84-1.37,3.84-3.98v-1.98
	C301.4,642.43,300.3,640.9,297.71,640.9z M297.56,649.24h-1.62v-6.67h1.77c1.34,0,1.88,0.75,1.88,2.26v2.19
	C299.59,648.6,298.93,649.24,297.56,649.24z"/>
<path class="st0" d="M304.7,654.07h4.17l0.64,3.32h1.84l-3.16-16.48h-2.66l-3.16,16.48h1.7L304.7,654.07z M304.94,652.49l1.81-9.52
	l1.86,9.52H304.94z"/>
<path class="st0" d="M316.38,640.74c-2.52,0-3.67,1.6-3.67,4.12v1.04h1.7v-1.11c0-1.48,0.61-2.38,1.93-2.38
	c1.34,0,1.93,0.85,1.93,2.54v0.75c0,1.44-0.8,2.26-2.03,2.26h-0.87v1.65h0.78c1.39,0,2.12,0.85,2.12,2.45v1.29
	c0,1.65-0.59,2.52-1.93,2.52c-1.32,0-1.93-0.9-1.93-2.38v-1.69h-1.72v1.6c0,2.5,1.18,4.15,3.7,4.15c2.54,0,3.72-1.65,3.72-4.15
	v-1.29c0-1.65-0.64-2.92-2.03-3.39c1.34-0.49,2.03-1.72,2.03-3.42v-0.42C320.11,642.39,318.93,640.74,316.38,640.74z"/>
<path class="st0" d="M325.49,640.9h-3.6v16.48h1.84v-6.5h1.62c2.61,0,3.84-1.37,3.84-3.98v-1.98
	C329.19,642.43,328.08,640.9,325.49,640.9z M325.35,649.24h-1.62v-6.67h1.77c1.34,0,1.88,0.75,1.88,2.26v2.19
	C327.38,648.6,326.72,649.24,325.35,649.24z"/>
<path class="st0" d="M332.49,654.07h4.17l0.64,3.32h1.84l-3.16-16.48h-2.66l-3.16,16.48h1.7L332.49,654.07z M332.73,652.49
	l1.81-9.52l1.86,9.52H332.73z"/>
<path class="st0" d="M344.34,647.71h-1.93v-5.13h5.14v-1.67h-6.95v16.48h3.84c2.59,0,3.79-1.44,3.79-4v-1.81
	C348.22,648.93,346.9,647.71,344.34,647.71z M344.43,655.72h-2.03v-6.36h1.93c1.34,0,2.05,0.49,2.05,2.09v2.05
	C346.39,655.03,345.77,655.72,344.43,655.72z"/>
<path class="st0" d="M351.88,654.07h4.17l0.64,3.32h1.84l-3.16-16.48h-2.66l-3.16,16.48h1.7L351.88,654.07z M352.12,652.49
	l1.81-9.52l1.86,9.52H352.12z"/>
<path class="st0" d="M362.48,657.39h1.84v-14.81h3.04v-1.67h-7.92v1.67h3.04V657.39z"/>
<path class="st0" d="M372.19,647.4h-1.63v-6.5h-1.84v16.48h3.6c2.57,0,3.7-1.53,3.7-4.03v-1.98
	C376.03,648.77,374.8,647.4,372.19,647.4z M379.37,640.9h-1.81v16.48h1.81V640.9z M372.33,655.72h-1.77v-6.66h1.63
	c1.37,0,2.02,0.61,2.02,2.21v2.19C374.21,654.96,373.67,655.72,372.33,655.72z"/>
<path class="st0" d="M384.96,640.9h-3.7v16.48h3.79c2.57,0,3.77-1.39,3.77-3.86v-1.39c0-1.81-0.61-3.08-2.21-3.53
	c1.44-0.45,1.93-1.53,1.93-3.27v-0.78C388.54,642.13,387.53,640.9,384.96,640.9z M384.51,647.9h-1.41v-5.32h1.81
	c1.32,0,1.81,0.71,1.81,2.17v0.97C386.73,647.43,385.97,647.9,384.51,647.9z M385.05,655.72h-1.95v-6.15h1.6
	c1.58,0,2.31,0.61,2.31,2.45v1.46C387.01,655.01,386.4,655.72,385.05,655.72z"/>
<path class="st0" d="M392.35,654.07h4.17l0.64,3.32H399l-3.16-16.48h-2.66l-3.16,16.48h1.7L392.35,654.07z M392.58,652.49l1.81-9.52
	l1.86,9.52H392.58z"/>
<path class="st0" d="M406.29,648.2h-4.03v-5.63h4.95v-1.67h-6.78v16.48h6.78v-1.67h-4.95v-5.86h4.03V648.2z"/>
<path class="st0" d="M411.43,657.39h1.84v-14.81h3.04v-1.67h-7.91v1.67h3.04v14.81H411.43z"/>
<path class="st0" d="M67.7,666.12h4.05v14.81h1.84v-16.48h-7.73v16.48h1.84C67.7,680.93,67.7,666.12,67.7,666.12z"/>
<path class="st0" d="M81.34,671.75h-4.03v-5.63h4.95v-1.67h-6.78v16.48h6.78v-1.67h-4.95v-5.86h4.03V671.75z"/>
<path class="st0" d="M87.57,664.45h-3.6v16.48h1.84v-6.5h1.63c2.61,0,3.84-1.36,3.84-3.98v-1.98
	C91.27,665.98,90.16,664.45,87.57,664.45z M87.43,672.79H85.8v-6.67h1.77c1.34,0,1.88,0.75,1.88,2.26v2.19
	C89.45,672.15,88.79,672.79,87.43,672.79z"/>
<path class="st0" d="M96.4,664.45h-3.7v16.48h3.79c2.57,0,3.77-1.39,3.77-3.86v-1.39c0-1.81-0.61-3.08-2.21-3.53
	c1.44-0.45,1.93-1.53,1.93-3.27v-0.78C99.98,665.68,98.97,664.45,96.4,664.45z M95.96,671.45h-1.41v-5.32h1.81
	c1.32,0,1.81,0.71,1.81,2.17v0.96C98.17,670.98,97.42,671.45,95.96,671.45z M96.5,679.27h-1.96v-6.15h1.6
	c1.58,0,2.31,0.61,2.31,2.45v1.46C98.45,678.56,97.84,679.27,96.5,679.27z"/>
<path class="st0" d="M106.88,677.31l3.53-12.86h-1.91l-1.48,5.72l-0.97,4.15l-1.13-4.15l-1.67-5.72h-1.84l3.79,12.15l-0.38,1.08
	c-0.31,1.25-0.94,1.7-2.36,1.62v1.65C105.46,681.1,106.31,679.78,106.88,677.31z"/>
<path class="st0" d="M119.76,664.29c-2.54,0-3.79,1.62-3.79,4.15v3.44h-2.38v-7.42h-1.84v16.48h1.84v-7.42h2.38v3.44
	c0,2.5,1.25,4.15,3.79,4.15c2.52,0,3.77-1.65,3.77-4.15v-8.53C123.53,665.91,122.28,664.29,119.76,664.29z M119.76,665.96
	c1.32,0,1.96,0.87,1.96,2.38v8.71c0,1.48-0.64,2.38-1.96,2.38c-1.34,0-1.96-0.9-1.96-2.38v-8.71
	C117.81,666.83,118.42,665.96,119.76,665.96z"/>
<path class="st0" d="M132.73,671.26h-1.93v-5.13h5.13v-1.67h-6.95v16.48h3.84c2.59,0,3.79-1.44,3.79-4v-1.81
	C136.61,672.48,135.3,671.26,132.73,671.26z M132.82,679.27h-2.03v-6.36h1.93c1.34,0,2.05,0.49,2.05,2.1v2.05
	C134.78,678.58,134.16,679.27,132.82,679.27z"/>
<path class="st0" d="M144.28,671.75h-4.03v-5.63h4.95v-1.67h-6.78v16.48h6.78v-1.67h-4.95v-5.86h4.03V671.75z"/>
<path class="st0" d="M150.46,664.29c-2.52,0-3.7,1.65-3.7,4.15v8.53c0,2.5,1.18,4.15,3.7,4.15c2.54,0,3.72-1.65,3.72-4.15v-2.05
	h-1.74v2.14c0,1.48-0.59,2.38-1.93,2.38c-1.32,0-1.93-0.9-1.93-2.38v-8.71c0-1.48,0.61-2.38,1.93-2.38c1.34,0,1.93,0.9,1.93,2.38
	v1.58h1.74v-1.48C154.18,665.94,153,664.29,150.46,664.29z"/>
<path class="st0" d="M157.69,666.12h4.05v14.81h1.84v-16.48h-7.73v16.48h1.84V666.12z"/>
<path class="st0" d="M168.98,666.12h3.16v14.81h1.84v-16.48h-6.71l-0.45,12.48c-0.05,1.58-0.31,2.35-1.84,2.35v1.67h0.31
	c2.52-0.02,3.23-1.51,3.32-4.12L168.98,666.12z"/>
<path class="st0" d="M177.79,677.62h4.17l0.64,3.32h1.84l-3.16-16.48h-2.66l-3.16,16.48h1.7L177.79,677.62z M178.03,676.04
	l1.81-9.51l1.86,9.51H178.03z"/>
<path class="st0" d="M188.39,680.94h1.84v-14.81h3.04v-1.67h-7.91v1.67h3.04L188.39,680.94L188.39,680.94z"/>
<path class="st0" d="M196.47,673.52h4.05v7.42h1.84v-16.48h-1.84v7.42h-4.05v-7.42h-1.84v16.48h1.84V673.52z"/>
<path class="st0" d="M209.2,677.31l3.53-12.86h-1.91l-1.48,5.72l-0.97,4.15l-1.13-4.15l-1.67-5.72h-1.84l3.79,12.15l-0.38,1.08
	c-0.31,1.25-0.94,1.7-2.35,1.62v1.65C207.78,681.1,208.63,679.78,209.2,677.31z"/>
<path class="st0" d="M222.08,664.29c-2.54,0-3.79,1.62-3.79,4.15v3.44h-2.38v-7.42h-1.84v16.48h1.84v-7.42h2.38v3.44
	c0,2.5,1.25,4.15,3.79,4.15c2.52,0,3.77-1.65,3.77-4.15v-8.53C225.85,665.91,224.6,664.29,222.08,664.29z M222.08,665.96
	c1.32,0,1.96,0.87,1.96,2.38v8.71c0,1.48-0.64,2.38-1.96,2.38c-1.34,0-1.96-0.9-1.96-2.38v-8.71
	C220.13,666.83,220.74,665.96,222.08,665.96z"/>
<path class="st0" d="M234.98,664.45h-3.7v16.48h3.79c2.57,0,3.77-1.39,3.77-3.86v-1.39c0-1.81-0.61-3.08-2.21-3.53
	c1.44-0.45,1.93-1.53,1.93-3.27v-0.78C238.56,665.68,237.54,664.45,234.98,664.45z M234.53,671.45h-1.41v-5.32h1.81
	c1.32,0,1.81,0.71,1.81,2.17v0.96C236.74,670.98,235.99,671.45,234.53,671.45z M235.07,679.27h-1.96v-6.15h1.6
	c1.58,0,2.31,0.61,2.31,2.45v1.46C237.03,678.56,236.41,679.27,235.07,679.27z"/>
<path class="st0" d="M246.37,671.75h-4.03v-5.63h4.95v-1.67h-6.78v16.48h6.78v-1.67h-4.95v-5.86h4.03V671.75z"/>
<path class="st0" d="M252.6,664.45H249v16.48h1.84v-6.5h1.62c2.61,0,3.84-1.36,3.84-3.98v-1.98
	C256.29,665.98,255.19,664.45,252.6,664.45z M252.45,672.79h-1.62v-6.67h1.77c1.34,0,1.88,0.75,1.88,2.26v2.19
	C254.48,672.15,253.82,672.79,252.45,672.79z"/>
<path class="st0" d="M261.29,664.29c-2.52,0-3.7,1.65-3.7,4.15v8.53c0,2.5,1.18,4.15,3.7,4.15c2.54,0,3.72-1.65,3.72-4.15v-2.05
	h-1.74v2.14c0,1.48-0.59,2.38-1.93,2.38c-1.32,0-1.93-0.9-1.93-2.38v-8.71c0-1.48,0.61-2.38,1.93-2.38c1.34,0,1.93,0.9,1.93,2.38
	v1.58h1.74v-1.48C265.01,665.94,263.83,664.29,261.29,664.29z"/>
<path class="st0" d="M271.02,673.33l1.79-5.51v13.12h1.65v-16.48h-2.05l-2.64,7.75l-1.46,4.54v-12.29h-1.63v16.48h1.91
	L271.02,673.33z"/>
<path class="st0" d="M284.33,664.29c-2.54,0-3.79,1.62-3.79,4.15v3.44h-2.38v-7.42h-1.84v16.48h1.84v-7.42h2.38v3.44
	c0,2.5,1.25,4.15,3.79,4.15c2.52,0,3.77-1.65,3.77-4.15v-8.53C288.1,665.91,286.85,664.29,284.33,664.29z M284.33,665.96
	c1.32,0,1.96,0.87,1.96,2.38v8.71c0,1.48-0.64,2.38-1.96,2.38c-1.34,0-1.95-0.9-1.95-2.38v-8.71
	C282.37,666.83,282.99,665.96,284.33,665.96z"/>
<path class="st0" d="M297.44,664.45h-3.91v16.48h4.08c2.59,0,3.93-1.37,3.93-3.91v-1.34c0-1.74-0.54-2.99-1.93-3.53
	c1.15-0.54,1.67-1.62,1.67-3.32v-0.59C301.28,665.7,300.12,664.45,297.44,664.45z M296.12,666.81h1.25c0.92,0,1.32,0.52,1.32,1.7
	v0.92c0,1.32-0.59,1.74-1.55,1.74h-1.01v-4.36H296.12z M296.12,673.52h1.15c1.18,0,1.67,0.47,1.67,2v1.44
	c0,1.22-0.47,1.62-1.34,1.62h-1.48V673.52z"/>
<path class="st0" d="M305.69,671.4v-4.59h4.48v-2.35h-7.07v16.48h7.07v-2.35h-4.48v-4.83h3.56v-2.35h-3.56V671.4z"/>
<path class="st0" d="M315.68,664.45h-3.91v16.48h4.08c2.59,0,3.93-1.37,3.93-3.91v-1.34c0-1.74-0.54-2.99-1.93-3.53
	c1.15-0.54,1.67-1.62,1.67-3.32v-0.59C319.52,665.7,318.36,664.45,315.68,664.45z M314.36,666.81h1.25c0.92,0,1.32,0.52,1.32,1.7
	v0.92c0,1.32-0.59,1.74-1.56,1.74h-1.01V666.81z M314.36,673.52h1.15c1.18,0,1.67,0.47,1.67,2v1.44c0,1.22-0.47,1.62-1.34,1.62
	h-1.48V673.52z"/>
<path class="st0" d="M329.72,680.94l-2.64-16.48h-3.79l-2.64,16.48h2.38l0.45-2.99h3.18l0.45,2.99H329.72z M323.81,675.71l1.25-8.34
	l1.25,8.34H323.81z"/>
<path class="st0" d="M330.6,668.41c0,4.71,5.07,5.35,5.07,8.74c0,1.18-0.52,1.6-1.34,1.6s-1.34-0.42-1.34-1.6v-1.18h-2.45v1.01
	c0,2.64,1.32,4.14,3.86,4.14c2.54,0,3.86-1.51,3.86-4.14c0-4.71-5.06-5.35-5.06-8.74c0-1.18,0.47-1.62,1.3-1.62
	c0.82,0,1.3,0.45,1.3,1.62v0.68h2.45v-0.52c0-2.64-1.3-4.15-3.82-4.15C331.9,664.27,330.6,665.77,330.6,668.41z"/>
<rect x="50.54" y="576.89" class="st1" width="370" height="122"/>
<g>
	<path d="M554.77,25.14v749h-529v-749H554.77 M569.77,10.14h-15h-529h-15v15v749v15h15h529h15v-15v-749V10.14L569.77,10.14z"/>
</g>
</svg>
