<?xml version="1.0" encoding="utf-8"?>
<!-- Generator: Adobe Illustrator 26.4.1, SVG Export Plug-In . SVG Version: 6.00 Build 0)  -->
<svg version="1.1" id="Layer_1" xmlns="http://www.w3.org/2000/svg" xmlns:xlink="http://www.w3.org/1999/xlink" x="0px" y="0px"
	 viewBox="0 0 603.6 211.1" style="enable-background:new 0 0 603.6 211.1;" xml:space="preserve">
<style type="text/css">
	.st0{fill:none;stroke:#000000;stroke-width:7;stroke-miterlimit:10;}
	.st1{fill:#6F2DA8;stroke:#6F2DA8;stroke-width:7;stroke-miterlimit:10;}
</style>
<path class="st0" d="M592.2,60.6H383.4c-15.6-29-46.2-48.7-81.4-48.7s-65.8,19.7-81.4,48.7H12v93.2h212.2
	c16.4,25.7,45.2,42.8,77.9,42.8s61.5-17.1,77.9-42.8h212.2L592.2,60.6L592.2,60.6z"/>
<path class="st0" d="M302.1,179c41.3,0,74.8-33.5,74.8-74.8s-33.5-74.8-74.8-74.8s-74.8,33.5-74.8,74.8S260.8,179,302.1,179z"/>
<path class="st0" d="M24,141.2h197.1"/>
<path class="st0" d="M387.4,141.2h197.1"/>
<path class="st1" d="M302.1,162.3c32.1,0,58.1-26,58.1-58.1s-26-58.1-58.1-58.1s-58.1,26-58.1,58.1C244,136.3,270,162.3,302.1,162.3
	z"/>
</svg>
