<?xml version="1.0" encoding="utf-8"?>
<!-- Generator: Adobe Illustrator 26.4.1, SVG Export Plug-In . SVG Version: 6.00 Build 0)  -->
<svg version="1.1" id="Layer_1" xmlns="http://www.w3.org/2000/svg" xmlns:xlink="http://www.w3.org/1999/xlink" x="0px" y="0px"
	 viewBox="0 0 343.85 713.1" style="enable-background:new 0 0 343.85 713.1;" xml:space="preserve">
<style type="text/css">
	.st0{fill:none;stroke:#000000;stroke-width:12;stroke-linejoin:bevel;}
	.st1{fill:none;stroke:#000000;stroke-width:12;stroke-miterlimit:10;}
	.st2{fill:#FFFFFF;stroke:#000000;stroke-width:12;stroke-miterlimit:10;}
	.st3{stroke:#000000;stroke-width:12;stroke-miterlimit:10;}
</style>
<path class="st0" d="M242.34,694.85l-93.37-567.17L55.6,694.85"/>
<path class="st1" d="M17.62,694.85h75.81"/>
<path class="st1" d="M204.5,694.85h75.81"/>
<path class="st1" d="M110.79,695.12h75.81"/>
<path class="st2" d="M242.39,11.48H55.52v116.34h186.87V11.48z"/>
<path class="st2" d="M328.21,127.68l-85.87-34.22V42.92l85.87-31.58V127.68z"/>
<path class="st3" d="M111.33,100.18c16.87,0,30.54-13.67,30.54-30.54S128.2,39.1,111.33,39.1S80.79,52.77,80.79,69.64
	C80.79,86.51,94.46,100.18,111.33,100.18z"/>
<path class="st3" d="M186.6,100.18c16.86,0,30.54-13.67,30.54-30.54S203.47,39.1,186.6,39.1s-30.54,13.67-30.54,30.54
	S169.74,100.18,186.6,100.18z"/>
<path class="st1" d="M148.96,150.86v544.52"/>
<path class="st2" d="M55.79,38.98H25.25v53.69h30.54V38.98z"/>
</svg>
