<?xml version="1.0" encoding="utf-8"?>
<!-- Generator: Adobe Illustrator 26.4.1, SVG Export Plug-In . SVG Version: 6.00 Build 0)  -->
<svg version="1.1" id="Layer_1" xmlns="http://www.w3.org/2000/svg" xmlns:xlink="http://www.w3.org/1999/xlink" x="0px" y="0px"
	 viewBox="0 0 500 600" style="enable-background:new 0 0 500 600;" xml:space="preserve">
<path d="M335.51,137.52h-72.64v325.95h36.32V324.24h25.61c30.27,0,47.5,11.64,47.5,48.43v51.22c0,21.89,1.86,30.27,6.05,39.58h36.79
	c-6.05-11.17-6.52-24.68-6.52-39.11V373.6c0-34.92-11.17-59.14-40.98-67.98c27.94-8.85,40.51-31.2,40.51-67.05v-26.54
	C408.15,163.59,386.73,137.52,335.51,137.52z M326.18,291.18h-27.01v-120.6h35.4c27.01,0,37.72,15.37,37.72,44.7v31.2
	C372.29,281.87,355.06,291.18,326.18,291.18z"/>
<path d="M165.49,137.52h72.64v325.95h-36.32V324.24H176.2c-30.27,0-47.5,11.64-47.5,48.43v51.22c0,21.89-1.86,30.27-6.05,39.58
	H85.87c6.05-11.17,6.52-24.68,6.52-39.11V373.6c0-34.92,11.18-59.14,40.98-67.98c-27.94-8.85-40.51-31.2-40.51-67.05v-26.54
	C92.85,163.59,114.27,137.52,165.49,137.52z M174.8,291.18h27.01v-120.6h-35.39c-27.01,0-37.72,15.37-37.72,44.7v31.2
	C128.71,281.87,145.93,291.18,174.8,291.18z"/>
</svg>
