<?xml version="1.0" encoding="utf-8"?>
<!-- Generator: Adobe Illustrator 26.4.1, SVG Export Plug-In . SVG Version: 6.00 Build 0)  -->
<svg version="1.1" id="Layer_1" xmlns="http://www.w3.org/2000/svg" xmlns:xlink="http://www.w3.org/1999/xlink" x="0px" y="0px"
	 viewBox="0 0 580.54 807.08" style="enable-background:new 0 0 580.54 807.08;" xml:space="preserve">
<style type="text/css">
	.st0{fill:#6F2DA8;stroke:#ADADAD;stroke-width:35;}
	.st1{fill:#6F2DA8;stroke:#000000;stroke-width:8;}
	.st2{fill:#6F2DA8;stroke:#ADADAD;stroke-width:23;}
	.st3{fill:#6F2DA8;stroke:#000000;stroke-width:7;}
	.st4{fill:#6F2DA8;stroke:#ADADAD;stroke-width:15;}
	.st5{fill:#6F2DA8;stroke:#000000;stroke-width:6;}
	.st6{fill:#6F2DA8;stroke:#ADADAD;stroke-width:12;}
	.st7{fill:#6F2DA8;stroke:#000000;stroke-width:5;}
	.st8{fill:#6F2DA8;stroke:#ADADAD;stroke-width:8;}
	.st9{fill:#6F2DA8;stroke:#000000;stroke-width:4.0001;stroke-miterlimit:4.0001;}
	.st10{fill:#6F2DA8;stroke:#ADADAD;stroke-width:8.0001;stroke-miterlimit:4.0001;}
	.st11{fill:#6F2DA8;stroke:#000000;stroke-width:4;}
	.st12{fill:#6F2DA8;stroke:#ADADAD;stroke-width:7;}
	.st13{fill:#6F2DA8;stroke:#000000;stroke-width:2;}
	.st14{fill:#6F2DA8;stroke:#ADADAD;stroke-width:2;}
	.st15{fill:#6F2DA8;stroke:#ADADAD;stroke-width:4.5383;}
	.st16{fill:#FFFFFF;stroke:#000000;stroke-width:12;}
	.st17{fill:#FFFFFF;}
	.st18{fill:none;stroke:#000000;stroke-width:15;}
</style>
<rect x="18.77" y="21.54" width="543" height="764"/>
<circle class="st0" cx="289.88" cy="359.07" r="232.41"/>
<circle class="st1" cx="289.88" cy="359.07" r="189.96"/>
<circle class="st2" cx="289.88" cy="359.07" r="174.46"/>
<path class="st3" d="M289.15,501.86c79.85,0,144.63-64.32,144.63-143.71s-64.77-143.71-144.63-143.71
	c-79.85,0-144.63,64.32-144.63,143.71C144.52,437.54,209.29,501.86,289.15,501.86z"/>
<path class="st4" d="M422.77,358.15c0,73.25-59.78,132.71-133.63,132.71S155.51,431.4,155.51,358.15s59.78-132.71,133.63-132.71
	C362.99,225.44,422.77,284.9,422.77,358.15z"/>
<circle class="st5" cx="289.88" cy="359.07" r="107.74"/>
<circle class="st6" cx="289.88" cy="359.07" r="98.74"/>
<circle class="st7" cx="289.88" cy="359.07" r="75.64"/>
<circle class="st8" cx="289.88" cy="359.07" r="69.14"/>
<ellipse class="st9" cx="289.71" cy="358.88" rx="53.27" ry="53.27"/>
<ellipse class="st10" cx="289.71" cy="358.88" rx="47.27" ry="47.27"/>
<circle class="st11" cx="289.88" cy="359.07" r="35.08"/>
<circle class="st12" cx="289.88" cy="359.07" r="29.58"/>
<circle class="st13" cx="289.88" cy="359.07" r="19.01"/>
<circle class="st14" cx="289.88" cy="359.07" r="17.01"/>
<circle class="st11" cx="289.7" cy="358.89" r="10.27"/>
<circle class="st15" cx="289.7" cy="358.89" r="6"/>
<path class="st16" d="M58.45,772.04l231.5-400.97l231.5,400.97H58.45z"/>
<path class="st17" d="M70.11,123.3l19.12,49.8h20.19l-27.34-69.26l27.34-55.69H89.77L64.04,102.6V48.15H44.38v124.96h19.66v-38.38
	L70.11,123.3z"/>
<path class="st17" d="M139.67,128.64l10.56-36.91l5.17-19.78v56.69h11.36V48.15h-13.89l-10.33,33.23l-4.59,17.71V48.15H126.7v80.49
	H139.67z"/>
<path class="st17" d="M238.06,100.7l6.88-24.1l3.36-12.91v37.01h7.4V48.15h-9.05l-6.73,21.7l-2.99,11.56V48.15h-7.33v52.56h8.46
	V100.7z"/>
<path class="st17" d="M371.72,109.16l7.98-27.98l3.91-14.99v42.97h8.59V48.15h-10.5l-7.81,25.19l-3.47,13.42V48.15h-8.51v61.01
	H371.72z"/>
<path class="st17" d="M198.1,48.15h-14.06v61.01h9.55V86.24h4.51c9.55,0,14.24-5.32,14.24-15.08v-7.93
	C212.34,53.47,207.65,48.15,198.1,48.15z M193.59,56.86h4.51c3.04,0,4.69,1.39,4.69,5.75v9.15c0,4.36-1.65,5.75-4.69,5.75h-4.51
	V56.86z"/>
<path class="st17" d="M272.98,85.01v6.13h1.04c6.72,0,9.53-3.07,9.78-10.92l0.73-25.95h5.87v36.8h6.84V48.15h-19l-1.1,32.45
	C277.01,84.59,276.03,85.01,272.98,85.01z"/>
<path class="st17" d="M314.87,93.21v7.5h1.27c8.21,0,11.65-3.75,11.95-13.34l0.9-31.71h7.17v44.98h8.36V48.15H321.3l-1.35,39.66
	C319.8,92.68,318.61,93.21,314.87,93.21z"/>
<path class="st17" d="M409.69,48.15v77.44h31.86v10.4h11.84v-21.24h-5.31v-66.6h-12.39v66.38h-13.83V48.15H409.69z"/>
<path class="st17" d="M535.75,166.42L516.83,48.15h-27.2L470.7,166.42h17.07l3.21-21.46h22.81l3.21,21.46L535.75,166.42
	L535.75,166.42z M493.34,128.91l8.96-59.81l8.95,59.81H493.34z"/>
<path class="st17" d="M289.88,359.07l243.66-55.38c0,0,7.72,19,7.72,55.38c0,36.39-7.72,55.38-7.72,55.38L289.88,359.07z"/>
<path class="st17" d="M289.88,358.95L46.22,303.57c0,0-7.72,19-7.72,55.38s7.72,55.38,7.72,55.38L289.88,358.95z"/>
<path class="st17" d="M242.5,168.63l-12.89-16.17c0,0,25.39-8.82,60.57-8.82s60.71,8.82,60.71,8.82l-13.94,16.17
	c0,0-22.36-5.05-46.76-5.05S242.5,168.63,242.5,168.63z"/>
<path class="st17" d="M258.95,210.63l-5.82-10.13c0,0,15.14-5.31,37.77-5.31c22.63,0,38.67,5.31,38.67,5.31l-5.82,10.13
	c0,0-21.56-2.14-32.86-2.14C279.61,208.49,258.95,210.63,258.95,210.63z"/>
<path class="st17" d="M270.62,245.04l-5-9.77c0,0,8.66-2.72,25.06-2.72s26.39,2.73,26.39,2.73l-5.88,9.77c0,0-9.11-1.86-20.51-1.86
	C279.29,243.18,270.62,245.04,270.62,245.04z"/>
<path class="st17" d="M279.22,274.04l-4.04-6.81c0,0,6.45-1.28,15.25-1.28c8.81,0,16.35,1.28,16.35,1.28l-4.78,6.81
	c0,0-7.18-0.94-11.58-0.94C286.04,273.1,279.22,274.04,279.22,274.04z"/>
<path class="st17" d="M285.74,300.04l-2.47-6.12c0,0,3.72-0.5,7.08-0.5s6.89,0.5,6.89,0.5l-2.18,6.12c0,0,0.5,0-4.71,0
	S285.74,300.04,285.74,300.04z"/>
<path class="st17" d="M289.31,321.04l-0.89-5.14c0,0,0.88,0,1.68,0s1.63,0,1.63,0l-0.96,5.14c0,0,0.56,0-0.67,0
	C288.86,321.04,289.31,321.04,289.31,321.04z"/>
<path class="st17" d="M289.54,337.04l-0.4-4.41c0,0,0.39,0,0.74,0s0.72,0,0.72,0l-0.42,4.41c0,0,0.25,0-0.3,0
	S289.54,337.04,289.54,337.04z"/>
<path class="st17" d="M289.44,343.63l-0.3-1.47c0,0,0.29,0,0.56,0c0.26,0,0.54,0,0.54,0l-0.32,1.47c0,0,0.19,0-0.22,0
	S289.44,343.63,289.44,343.63z"/>
<rect x="18.77" y="21.54" class="st18" width="543" height="764"/>
</svg>
