<?xml version="1.0" encoding="utf-8"?>
<!-- Generator: Adobe Illustrator 26.4.1, SVG Export Plug-In . SVG Version: 6.00 Build 0)  -->
<svg version="1.1" id="Layer_1" xmlns="http://www.w3.org/2000/svg" xmlns:xlink="http://www.w3.org/1999/xlink" x="0px" y="0px"
	 viewBox="0 0 500 600" style="enable-background:new 0 0 500 600;" xml:space="preserve">
<style type="text/css">
	.st0{fill:#ADADAD;}
	.st1{fill:#FFFFFF;fill-opacity:0.5;}
</style>
<path class="st0" d="M160.23,134c-48.67,0-71.84,31.25-71.84,81.62c0,91.88,108.46,98.87,108.46,171.63
	c0,29.38-12.05,46.64-38.01,46.64s-38.01-17.26-38.01-46.64v-20.52H86.99v18.65c0,49.44,23.17,81.62,72.77,81.62
	c49.59,0,73.23-32.18,73.23-81.62c0-91.88-108.92-98.87-108.92-172.09c0-28.92,11.12-46.18,37.08-46.18s37.08,17.26,37.08,46.64
	v10.73h34.3v-8.86C232.53,166.18,209.36,134,160.23,134z"/>
<path d="M345.76,464c49.33,0,72.83-31.34,72.83-81.86c0-92.16-109.94-99.17-109.94-172.15c0-29.47,12.21-46.78,38.53-46.78
	c26.31,0,38.53,17.31,38.53,46.78v20.58h34.3v-18.71c0-49.58-23.49-81.86-73.77-81.86s-74.23,32.28-74.23,81.86
	c0,92.16,110.41,99.17,110.41,172.62c0,29-11.28,46.31-37.59,46.31s-37.59-17.31-37.59-46.78v-10.76h-34.77v8.89
	C272.47,431.72,295.96,464,345.76,464z"/>
<path class="st1" d="M64,107h373v119H64V107z"/>
<path class="st1" d="M64,373h373v121H64V373z"/>
<path d="M268.02,318.03l-1.37-1.45L268.02,318.03z M250.57,325l-0.01-2L250.57,325z M233.08,318.14l-1.36,1.46L233.08,318.14z
	 M225,301.15l-2.22,22.99l21.02-9.57L225,301.15z M274,300.88c-0.37,5.98-3,11.59-7.36,15.7l2.75,2.91
	c5.09-4.81,8.17-11.37,8.6-18.37L274,300.88z M266.64,316.58c-4.35,4.11-10.1,6.4-16.08,6.42l0.01,4c7-0.02,13.72-2.71,18.82-7.51
	L266.64,316.58z M250.56,323c-5.98,0.02-11.74-2.24-16.12-6.33l-2.73,2.93c5.12,4.78,11.86,7.42,18.86,7.4L250.56,323z
	 M234.44,316.67c-0.2-0.18-0.39-0.36-0.58-0.55l-2.83,2.83c0.22,0.22,0.44,0.44,0.67,0.65L234.44,316.67z"/>
<path d="M232.98,280.97l1.37,1.45L232.98,280.97z M250.42,274l0.01,2L250.42,274z M267.91,280.86l1.36-1.46L267.91,280.86z
	 M276,297.85l2.22-22.99l-21.02,9.57L276,297.85z M226.99,298.12c0.37-5.98,3-11.59,7.36-15.7l-2.75-2.91
	c-5.09,4.81-8.17,11.37-8.6,18.37L226.99,298.12z M234.35,282.42c4.35-4.11,10.1-6.4,16.08-6.42l-0.01-4
	c-7,0.02-13.72,2.71-18.82,7.51L234.35,282.42z M250.43,276c5.98-0.02,11.74,2.24,16.12,6.33l2.73-2.93
	c-5.12-4.78-11.86-7.42-18.86-7.4L250.43,276z M266.55,282.33c0.2,0.18,0.39,0.36,0.58,0.55l2.83-2.83
	c-0.22-0.22-0.44-0.44-0.67-0.65L266.55,282.33z"/>
</svg>
