<?xml version="1.0" encoding="utf-8"?>
<!-- Generator: Adobe Illustrator 26.4.1, SVG Export Plug-In . SVG Version: 6.00 Build 0)  -->
<svg version="1.1" id="Layer_1" xmlns="http://www.w3.org/2000/svg" xmlns:xlink="http://www.w3.org/1999/xlink" x="0px" y="0px"
	 viewBox="0 0 602.08 237.31" style="enable-background:new 0 0 602.08 237.31;" xml:space="preserve">
<style type="text/css">
	.st0{fill:none;stroke:#000000;stroke-width:7;stroke-miterlimit:10;}
	.st1{fill:#6F2DA8;}
	.st2{fill:none;stroke:#6F2DA8;stroke-width:4;stroke-miterlimit:10;}
	.st3{fill:none;stroke:#6F2DA8;stroke-width:3;stroke-miterlimit:10;}
	.st4{fill:none;stroke:#6F2DA8;stroke-miterlimit:10;}
	.st5{fill:none;stroke:#6F2DA8;stroke-width:2;stroke-miterlimit:10;}
	.st6{fill:none;stroke:#6F2DA8;stroke-width:5;stroke-miterlimit:10;}
</style>
<path class="st0" d="M25.89,11.86c0,10.63-8.62,19.25-19.25,19.25v4.3c7.21,0,13.05,5.84,13.05,13.05S13.85,61.51,6.64,61.51v2.61
	c7.21,0,13.05,5.84,13.05,13.05S13.85,90.22,6.64,90.22v2.61c7.21,0,13.05,5.84,13.05,13.05c0,7.21-5.84,13.05-13.05,13.05v2.61
	c7.21,0,13.05,5.84,13.05,13.05s-5.84,13.05-13.05,13.05v2.61c7.21,0,13.05,5.84,13.05,13.05s-5.84,13.05-13.05,13.05v2.61
	c7.21,0,13.05,5.84,13.05,13.05s-5.84,13.05-13.05,13.05v1.76c10.63,0,19.25,8.62,19.25,19.25h478.98V11.86H25.89z"/>
<path class="st0" d="M567.19,11.86c0,10.63,8.62,19.25,19.25,19.25v4.3c-7.21,0-13.05,5.84-13.05,13.05s5.84,13.05,13.05,13.05v2.61
	c-7.21,0-13.05,5.84-13.05,13.05s5.84,13.05,13.05,13.05v2.61c-7.21,0-13.05,5.84-13.05,13.05c0,7.21,5.84,13.05,13.05,13.05v2.61
	c-7.21,0-13.05,5.84-13.05,13.05s5.84,13.05,13.05,13.05v2.61c-7.21,0-13.05,5.84-13.05,13.05s5.84,13.05,13.05,13.05v2.61
	c-7.21,0-13.05,5.84-13.05,13.05s5.84,13.05,13.05,13.05v1.76c-10.63,0-19.25,8.62-19.25,19.25h-62.32V11.86H567.19z"/>
<path class="st1" d="M68.02,131.82c-18.93,4.59-30.55,23.65-25.96,42.58s23.65,30.55,42.58,25.96s30.55-23.65,25.96-42.58
	C106.01,138.85,86.95,127.23,68.02,131.82z M80.55,135.46c5.15-1.25,10.34,1.91,11.59,7.07c1.25,5.15-1.91,10.34-7.07,11.59
	s-10.34-1.91-11.59-7.07C72.23,141.9,75.39,136.71,80.55,135.46z M58.13,140.9c5.15-1.25,10.34,1.91,11.59,7.07
	s-1.91,10.34-7.07,11.59s-10.34-1.91-11.59-7.07C49.81,147.34,52.97,142.15,58.13,140.9z M44.24,174.28
	c-1.25-5.15,1.91-10.34,7.07-11.59c5.15-1.25,10.34,1.91,11.59,7.07c1.25,5.15-1.91,10.34-7.07,11.59S45.49,179.44,44.24,174.28z
	 M72.02,198.18c-5.15,1.25-10.34-1.91-11.59-7.07c-1.25-5.15,1.91-10.34,7.07-11.59s10.34,1.91,11.59,7.07
	C80.34,191.74,77.18,196.93,72.02,198.18z M72.14,167.1c-0.56-2.31,0.86-4.64,3.17-5.2s4.64,0.86,5.2,3.17s-0.86,4.64-3.17,5.2
	S72.7,169.41,72.14,167.1z M94.44,192.75c-5.15,1.25-10.34-1.91-11.59-7.07s1.91-10.34,7.07-11.59c5.15-1.25,10.34,1.91,11.59,7.07
	C102.76,186.31,99.6,191.5,94.44,192.75z M101.11,170.37c-5.15,1.25-10.34-1.91-11.59-7.07c-1.25-5.15,1.91-10.34,7.07-11.59
	s10.34,1.91,11.59,7.07C109.43,163.93,106.27,169.12,101.11,170.37z"/>
<path class="st2" d="M79.37,198.32l396.26,0.28"/>
<path class="st3" d="M514.77,53.07h50.1"/>
<path class="st4" d="M514.77,64.57h50.1"/>
<path class="st4" d="M514.77,76.07h50.1"/>
<path class="st5" d="M515.13,87.58h50.1"/>
<path class="st6" d="M515.13,99.08h50.1"/>
<path class="st4" d="M515.13,110.59h50.1"/>
<path class="st4" d="M515.13,122.09h50.1"/>
<path class="st4" d="M515.13,133.15h50.1"/>
<path class="st6" d="M514.77,144.66h50.1"/>
<path class="st4" d="M515.13,156.16h50.1"/>
<path class="st3" d="M515.13,167.45h50.1"/>
<path class="st4" d="M515.13,178.95h50.1"/>
<path class="st6" d="M515.13,190.34h50.1"/>
<path class="st4" d="M514.59,47.53h50.1"/>
<path class="st2" d="M514.59,59.04h50.1"/>
<path class="st6" d="M514.59,70.54h50.1"/>
<path class="st5" d="M514.95,82.05h50.1"/>
<path class="st4" d="M514.95,93.55h50.1"/>
<path class="st4" d="M514.95,105.06h50.1"/>
<path class="st2" d="M514.95,116.56h50.1"/>
<path class="st5" d="M514.95,127.62h50.1"/>
<path class="st4" d="M514.59,139.13h50.1"/>
<path class="st6" d="M514.95,150.63h50.1"/>
<path class="st3" d="M514.95,161.92h50.1"/>
<path class="st3" d="M514.95,173.42h50.1"/>
<path class="st2" d="M514.95,184.81h50.1"/>
</svg>
