<?xml version="1.0" encoding="utf-8"?>
<!-- Generator: Adobe Illustrator 26.4.1, SVG Export Plug-In . SVG Version: 6.00 Build 0)  -->
<svg version="1.1" id="Layer_1" xmlns="http://www.w3.org/2000/svg" xmlns:xlink="http://www.w3.org/1999/xlink" x="0px" y="0px"
	 viewBox="0 0 580.5 807.1" style="enable-background:new 0 0 580.5 807.1;" xml:space="preserve">
<style type="text/css">
	.st0{fill:#6F2DA8;}
	.st1{fill:none;stroke:#000000;stroke-width:33;}
	.st2{fill:#FFFFFF;}
	.st3{fill:none;stroke:#FFFFFF;stroke-width:33;}
	.st4{fill:none;stroke:#000000;stroke-width:15;}
</style>
<rect x="25.7" y="23.5" class="st0" width="537.1" height="749"/>
<path class="st1" d="M-81.7,525.2l74.2-74.2l74.2,74.2l74.2-74.2l74.2,74.2l74.2-74.2l74.2,74.2l74.2-74.2l74.2,74.2l74.2-74.2
	l74.2,74.2"/>
<path class="st1" d="M-81.7,432.2l74.2-74.2l74.2,74.2l74.2-74.2l74.2,74.2l74.2-74.2l74.2,74.2l74.2-74.2l74.2,74.2l74.2-74.2
	l74.2,74.2"/>
<rect x="25.7" y="629.9" class="st2" width="529.2" height="142.6"/>
<path class="st3" d="M-81.7,478.1l74.2-74.2l74.2,74.2l74.2-74.2l74.2,74.2l74.2-74.2l74.2,74.2l74.2-74.2l74.2,74.2l74.2-74.2
	l74.2,74.2"/>
<path class="st3" d="M-81.7,571.1l74.2-74.2l74.2,74.2l74.2-74.2l74.2,74.2l74.2-74.2l74.2,74.2l74.2-74.2l74.2,74.2l74.2-74.2
	l74.2,74.2"/>
<path class="st3" d="M-81.7,665.2l74.2-74.2l74.2,74.2l74.2-74.2l74.2,74.2l74.2-74.2l74.2,74.2l74.2-74.2l74.2,74.2l74.2-74.2
	l74.2,74.2"/>
<path class="st1" d="M-81.7,618.1l74.2-74.2l74.2,74.2l74.2-74.2l74.2,74.2l74.2-74.2l74.2,74.2l74.2-74.2l74.2,74.2l74.2-74.2
	l74.2,74.2"/>
<path class="st1" d="M-81.7,711.1l74.2-74.2l74.2,74.2l74.2-74.2l74.2,74.2l74.2-74.2l74.2,74.2l74.2-74.2l74.2,74.2l74.2-74.2
	l74.2,74.2"/>
<rect x="555.3" y="23.5" class="st2" width="226" height="739"/>
<rect x="-200.7" y="23.5" class="st2" width="226.4" height="739.5"/>
<rect x="19.8" y="16" class="st4" width="543" height="764"/>
</svg>
