<?xml version="1.0" encoding="utf-8"?>
<!-- Generator: Adobe Illustrator 26.4.1, SVG Export Plug-In . SVG Version: 6.00 Build 0)  -->
<svg version="1.1" id="Layer_1" xmlns="http://www.w3.org/2000/svg" xmlns:xlink="http://www.w3.org/1999/xlink" x="0px" y="0px"
	 viewBox="0 0 580.54 807.08" style="enable-background:new 0 0 580.54 807.08;" xml:space="preserve">
<style type="text/css">
	.st0{fill:none;stroke:#000000;stroke-width:15;}
	.st1{fill:#FFFFFF;}
	.st2{fill:#6F2DA8;}
</style>
<rect x="18.77" y="21.54" class="st0" width="543" height="764"/>
<rect x="25.27" y="29.04" class="st1" width="528.71" height="749"/>
<rect x="106.04" y="530.57" class="st2" width="367.16" height="132.18"/>
<path d="M281.67,141.39h15.9c3.31,0,6,2.69,6,6v115.04c0,3.31-2.69,6-6,6h-15.9c-3.31,0-6-2.69-6-6V147.39
	C275.67,144.07,278.36,141.39,281.67,141.39z"/>
<path d="M281.55,130.01c0-4.66,3.78-8.45,8.44-8.45s8.45,3.78,8.45,8.45v7.18c0,1.1-0.9,2-2,2h-12.89c-1.11,0-2-0.9-2-2V130.01z"/>
<path class="st1" d="M283.38,148L283.38,148c1.01,0,1.84,0.82,1.84,1.84v112.35c0,1.01-0.82,1.84-1.84,1.84l0,0
	c-1.01,0-1.84-0.82-1.84-1.84V149.83C281.55,148.82,282.37,148,283.38,148z"/>
<path d="M275.84,277.52c-0.09-3.38,2.62-6.16,6-6.16h15.58c3.38,0,6.09,2.79,6,6.16l-3.72,138.54c-0.09,3.25-2.75,5.84-6,5.84h-8.14
	c-3.25,0-5.91-2.59-6-5.84L275.84,277.52z"/>
<path class="st1" d="M283.38,279.44L283.38,279.44c1.01,0,1.84,0.82,1.84,1.84v133.65c0,1.01-0.82,1.84-1.84,1.84l0,0
	c-1.01,0-1.84-0.82-1.84-1.84V281.28C281.55,280.26,282.37,279.44,283.38,279.44z"/>
<path d="M292.19,474.58c0,0-2.52,3.57-5.03,0c0,0-4.22-12.6-5.88-20.93c-1.55-7.77-2.24-18.82-2.52-24.72
	c-0.11-2.25,1.7-4.1,3.95-4.1h14.05c2.25,0,4.05,1.85,3.95,4.09c-0.27,5.9-0.96,16.96-2.53,24.73
	C296.5,461.99,292.19,474.58,292.19,474.58z"/>
<path d="M287.73,483.14c0.61,1.81,3.17,1.81,3.79,0l0.39-1.14c0.44-1.3-0.52-2.64-1.89-2.64h-0.78c-1.37,0-2.33,1.35-1.89,2.64
	L287.73,483.14z"/>
</svg>
