<?xml version="1.0" encoding="utf-8"?>
<!-- Generator: Adobe Illustrator 26.4.1, SVG Export Plug-In . SVG Version: 6.00 Build 0)  -->
<svg version="1.1" id="Layer_1" xmlns="http://www.w3.org/2000/svg" xmlns:xlink="http://www.w3.org/1999/xlink" x="0px" y="0px"
	 viewBox="0 0 500 600" style="enable-background:new 0 0 500 600;" xml:space="preserve">
<style type="text/css">
	.st0{fill:#ADADAD;}
	.st1{fill:#FFFFFF;fill-opacity:0.5;}
</style>
<path class="st0" d="M174.02,142.5c-48.72,0-71.48,31.5-71.48,80.35v14.61h33.24v-16.43c0-28.76,11.84-46.56,37.33-46.56
	c25.95,0,37.33,16.89,37.33,49.76v14.61c0,27.85-14.57,42.91-38.24,43.82h-20.94v31.96h19.12c26.86,0.91,40.07,15.98,40.07,47.48
	v24.65c0,32.41-11.38,49.3-37.33,49.3c-25.5,0-37.33-17.35-37.33-46.11v-24.2h-33.25v21.91c0,48.85,22.76,80.8,71.48,80.8
	c49.17,0,71.94-31.96,71.94-80.8V363c0-31.96-11.84-56.15-38.7-66.19c25.5-9.59,38.7-32.87,38.7-65.74v-8.22
	C245.96,174,223.19,142.5,174.02,142.5z"/>
<path d="M326.56,142.5c-49.6,0-72.32,31.04-72.32,79.89v20.09h33.38v-21.46c0-28.76,12.05-46.11,38.01-46.11
	c26.42,0,38.01,16.43,38.01,49.3v14.61c0,27.85-15.76,43.82-39.87,43.82h-17.15v31.96h15.3c27.35,0,41.72,16.43,41.72,47.48v25.11
	c0,31.96-11.59,48.85-38.01,48.85c-25.96,0-38.01-17.35-38.01-46.11v-32.87h-33.84v31.04c0,48.39,23.18,80.35,72.78,80.35
	c50.07,0,73.24-31.96,73.24-80.35v-25.11c0-31.96-12.52-56.61-39.87-65.74c26.42-9.59,39.87-33.32,39.87-66.19v-8.22
	C399.81,174.45,376.63,142.5,326.56,142.5z"/>
<rect x="63" y="365.5" class="st1" width="368" height="116"/>
<rect x="63" y="119.5" class="st1" width="375" height="119"/>
</svg>
